<?xml version="1.0" standalone="no"?>
<!DOCTYPE svg PUBLIC "-//W3C//DTD SVG 20010904//EN"
 "http://www.w3.org/TR/2001/REC-SVG-20010904/DTD/svg10.dtd">
<svg version="1.0" xmlns="http://www.w3.org/2000/svg"
 width="666.000000pt" height="666.000000pt" viewBox="0 0 666.000000 666.000000"
 preserveAspectRatio="xMidYMid meet">
<metadata>
Created by potrace 1.11, written by Peter Selinger 2001-2013
</metadata>
<g transform="translate(0.000000,666.000000) scale(0.100000,-0.100000)"
fill="#000000" stroke="none">
<path d="M1174 6563 c4 -54 9 -213 11 -353 4 -222 10 -471 19 -820 l3 -95 59
-6 c32 -4 62 -5 66 -3 4 3 5 59 3 127 -8 238 -16 505 -21 697 -3 107 -7 242
-9 300 -2 58 -4 138 -4 178 l-1 72 -66 0 -66 0 6 -97z"/>
<path d="M2881 6620 c24 -22 48 -40 52 -40 5 0 23 -11 41 -25 18 -14 36 -25
40 -25 4 0 14 -6 22 -14 11 -12 34 -14 73 -7 2 1 -2 8 -10 17 -11 13 -9 14 14
9 41 -11 35 20 -8 41 -19 9 -35 21 -35 26 0 5 -5 6 -11 2 -15 -9 -90 17 -86
30 2 6 11 10 20 10 9 -1 14 2 11 7 -3 5 -41 9 -86 9 l-81 0 44 -40z"/>
<path d="M3170 6656 c0 -3 4 -16 10 -30 5 -14 6 -26 1 -26 -5 0 -7 -8 -4 -18
3 -14 11 -18 29 -14 17 3 24 0 24 -12 0 -20 14 -20 35 0 20 20 15 39 -11 39
-27 0 -44 13 -54 41 -8 20 -30 35 -30 20z"/>
<path d="M3290 6646 c5 -5 6 -22 3 -39 -5 -27 -4 -30 15 -25 15 4 19 2 15 -8
-3 -10 3 -14 20 -14 27 0 82 -54 71 -71 -3 -6 1 -18 10 -28 11 -13 15 -29 11
-50 -3 -17 -1 -31 4 -31 9 0 24 -38 22 -54 -3 -14 20 -36 38 -36 20 0 50 -24
139 -108 37 -35 84 -75 104 -89 21 -14 40 -35 44 -47 4 -11 6 -21 4 -21 -2 0
2 -10 9 -23 7 -12 16 -20 21 -17 15 9 60 -6 60 -20 0 -8 6 -20 13 -27 13 -14
19 -88 7 -88 -5 0 -6 -9 -3 -20 4 -16 8 -18 19 -9 11 9 14 8 14 -4 0 -8 -6
-17 -12 -19 -10 -4 -13 -48 -14 -172 l-2 -168 -28 -17 c-32 -20 -61 -51 -48
-51 5 0 -12 -13 -37 -28 -26 -15 -47 -31 -47 -35 0 -5 -4 -12 -8 -15 -4 -4 -4
-1 0 6 11 19 -9 14 -29 -8 -10 -11 -24 -20 -32 -20 -7 0 -13 -4 -13 -8 0 -4
-15 -14 -34 -20 -19 -7 -46 -22 -61 -34 -21 -16 -24 -23 -13 -30 9 -7 4 -8
-14 -4 -16 4 -30 1 -34 -6 -4 -7 -3 -8 4 -4 7 4 12 2 12 -4 0 -6 -13 -13 -30
-16 -16 -4 -30 -11 -30 -16 0 -5 -4 -7 -8 -4 -13 8 -83 -44 -76 -56 4 -7 -1
-8 -16 -3 -15 5 -20 4 -16 -4 4 -6 -2 -16 -14 -23 -11 -7 -20 -18 -20 -24 0
-17 -26 -24 -38 -12 -8 8 -9 5 -6 -8 5 -19 -28 -64 -46 -64 -6 0 -10 -5 -10
-11 0 -6 -14 -24 -31 -40 -17 -16 -29 -35 -26 -42 3 -8 -10 -27 -29 -42 -19
-16 -32 -35 -30 -42 3 -7 2 -13 -2 -13 -11 0 -45 -60 -38 -67 3 -3 -4 -18 -14
-34 -11 -15 -23 -47 -26 -71 -3 -24 -8 -50 -10 -58 -3 -8 -8 -49 -10 -90 -10
-168 -31 -284 -59 -326 -11 -16 -12 -24 -4 -24 7 0 5 -8 -5 -19 -10 -11 -15
-25 -10 -32 4 -7 3 -10 -3 -6 -11 7 -33 -34 -33 -63 0 -10 -4 -21 -9 -25 -5
-3 -17 -27 -26 -53 -16 -44 -36 -89 -96 -217 -13 -27 -24 -54 -24 -60 0 -13
-35 -19 -35 -6 0 7 -69 9 -207 6 -115 -3 -460 -8 -768 -11 -308 -3 -566 -7
-573 -10 -11 -3 -12 -107 -3 -232 1 -11 19 -12 89 -7 94 8 117 9 319 20 173
10 211 1 236 -58 9 -23 17 -46 17 -51 0 -4 10 -30 22 -57 l23 -49 70 0 c39 0
84 -4 101 -9 47 -13 114 -86 114 -124 0 -10 16 -43 35 -73 38 -59 42 -76 22
-96 -21 -21 -39 -57 -32 -68 3 -5 0 -12 -5 -15 -6 -4 -15 -17 -21 -28 -5 -12
-15 -30 -21 -40 -11 -14 -10 -19 0 -26 11 -7 11 -9 -2 -14 -16 -7 -41 -82 -31
-97 4 -6 0 -13 -8 -16 -8 -3 -14 -21 -15 -45 -1 -23 -4 -44 -6 -48 -3 -4 -8
-30 -11 -57 -4 -27 -11 -78 -17 -114 -22 -142 -27 -542 -7 -566 12 -15 3 -37
-12 -29 -5 4 -9 1 -9 -5 0 -7 -9 -9 -22 -5 -22 6 -22 6 2 -14 13 -11 28 -17
32 -15 4 3 8 -5 8 -17 l0 -22 -25 23 c-19 18 -28 21 -37 12 -9 -9 -8 -18 2
-37 14 -26 44 -34 54 -12 3 6 3 2 0 -10 -3 -15 -1 -23 7 -23 7 0 10 -3 7 -6
-3 -3 -15 0 -26 7 -26 16 -47 1 -56 -41 -3 -17 -14 -33 -23 -36 -10 -3 -28
-11 -41 -17 -33 -16 -85 -12 -118 9 -18 12 -25 14 -20 5 6 -9 5 -12 -5 -9 -9
3 -14 19 -13 46 1 23 -2 42 -7 42 -5 0 -9 -7 -9 -15 0 -9 -12 -28 -27 -43 -15
-15 -25 -29 -23 -32 3 -3 -4 -6 -15 -9 -11 -2 -25 -10 -31 -19 -11 -16 -39 -8
-29 9 4 5 2 9 -4 9 -5 0 -14 -6 -18 -12 -26 -40 -86 -39 -108 2 -10 17 -14 20
-15 9 0 -9 -11 -24 -24 -33 -25 -16 -25 -15 -28 21 -2 30 -9 40 -37 55 -24 14
-32 15 -28 5 3 -7 -4 -19 -15 -26 -13 -8 -18 -19 -15 -31 4 -16 1 -18 -25 -13
-16 3 -47 0 -69 -7 -32 -11 -44 -11 -63 0 -15 8 -38 10 -59 6 -21 -4 -38 -2
-42 4 -3 5 -2 10 2 10 5 0 10 10 11 23 3 33 -7 69 -18 62 -5 -3 -7 -12 -3 -20
3 -10 -2 -15 -16 -15 -12 0 -21 -4 -21 -10 0 -5 -4 -10 -10 -10 -5 0 -8 16 -6
35 1 20 -3 40 -9 45 -8 7 -11 -4 -8 -40 2 -46 0 -53 -37 -91 -33 -35 -40 -39
-40 -22 0 12 -8 23 -20 26 -11 3 -20 1 -20 -4 0 -5 5 -9 10 -9 6 0 10 -5 10
-11 0 -6 -6 -9 -14 -6 -7 3 -18 1 -23 -4 -8 -8 -54 -15 -120 -18 -12 -1 -29
-8 -37 -17 -9 -8 -16 -14 -17 -12 0 2 -3 23 -5 48 -3 25 -10 50 -16 55 -7 7
-9 3 -5 -13 3 -15 0 -25 -8 -28 -8 -3 -12 -11 -9 -18 3 -7 -2 -18 -10 -25 -11
-10 -17 -8 -29 9 -12 18 -17 19 -38 8 -15 -8 -24 -23 -25 -38 -2 -29 13 -42
35 -30 18 9 67 17 156 25 33 3 61 10 63 16 2 5 8 9 13 9 6 0 8 -3 6 -7 -4 -7
445 -17 666 -16 49 1 77 -3 77 -10 0 -8 3 -8 11 0 8 8 22 8 50 -2 34 -12 39
-12 39 0 0 18 12 19 29 3 10 -11 12 -10 9 2 -3 16 -2 16 50 7 18 -4 32 -2 32
3 0 6 4 10 10 10 5 0 6 -8 3 -17 -5 -15 -4 -16 8 -7 20 16 79 26 79 14 0 -6
-4 -10 -10 -10 -5 0 -10 -5 -10 -12 0 -9 3 -9 11 -1 6 6 17 9 24 7 7 -3 16 -1
20 5 3 6 15 11 26 11 11 0 17 -4 14 -10 -3 -5 0 -7 8 -4 8 3 18 1 21 -4 9 -15
46 -2 46 15 0 11 7 13 27 8 38 -9 50 -30 68 -115 9 -41 19 -82 22 -90 3 -8 7
-22 8 -30 3 -27 37 -125 56 -162 12 -24 11 -28 -6 -22 -11 5 -13 2 -9 -10 3
-9 13 -16 21 -16 7 0 13 -6 12 -12 -2 -20 13 -58 21 -53 4 2 13 -7 20 -20 7
-14 17 -25 22 -25 4 0 8 -6 8 -14 0 -15 85 -132 127 -175 13 -13 23 -30 23
-38 0 -7 11 -18 25 -23 27 -10 34 -30 10 -30 -8 0 -15 4 -15 10 0 16 -53 -8
-72 -33 -12 -15 -20 -18 -25 -11 -9 13 -43 15 -43 2 0 -4 -5 -8 -11 -8 -6 0
-8 9 -4 20 8 26 -11 26 -27 0 -15 -23 -28 -26 -28 -6 0 23 -17 28 -55 17 -34
-9 -41 -5 -36 23 1 5 -1 16 -4 25 -5 12 -10 8 -21 -18 -8 -18 -14 -43 -14 -56
0 -30 -23 -50 -37 -33 -6 7 -13 20 -16 28 -4 10 -6 7 -6 -7 -1 -13 -7 -23 -14
-23 -7 0 -19 -10 -27 -22 -27 -39 -49 -58 -64 -52 -11 4 -13 0 -9 -14 6 -23
43 -37 43 -17 0 7 7 16 16 19 17 7 34 0 34 -14 0 -5 5 -21 11 -36 l10 -28 18
27 c17 27 31 27 31 0 0 -7 -6 -13 -13 -13 -8 0 -19 -12 -26 -26 -9 -21 -9 -25
2 -21 8 3 13 -3 14 -14 1 -10 -2 -19 -8 -19 -5 0 -9 -5 -9 -12 0 -6 9 -3 20 7
17 16 20 16 20 2 0 -8 5 -17 12 -19 7 -3 8 -9 3 -18 -5 -8 -10 -30 -11 -49 -2
-20 -5 -48 -7 -63 -5 -34 19 -46 29 -15 4 12 7 30 5 39 -1 10 3 26 9 38 6 11
7 26 3 33 -4 6 -6 20 -4 31 1 10 -3 23 -11 27 -8 5 -9 9 -2 9 8 0 11 18 8 53
-3 44 0 58 17 76 13 13 27 20 37 16 8 -3 19 0 23 7 6 9 11 9 23 -2 14 -11 16
-10 10 4 -3 9 -1 16 5 16 6 0 11 -5 11 -11 0 -8 4 -8 13 -2 19 16 67 25 67 13
0 -5 7 -10 15 -10 9 0 20 -11 27 -24 12 -28 38 -42 47 -27 7 11 20 4 41 -23
14 -18 13 -19 -3 -13 -9 3 -17 3 -17 -1 0 -4 -9 -13 -20 -19 -16 -11 -18 -10
-13 4 4 11 2 14 -8 11 -11 -4 -14 -29 -16 -106 -1 -56 1 -102 3 -102 3 0 10
13 15 30 13 35 32 41 23 6 -4 -16 -1 -25 11 -30 9 -3 15 -13 13 -22 -2 -9 2
-19 7 -20 6 -2 11 17 12 43 3 77 12 113 30 113 10 0 14 -6 11 -18 -7 -25 21
-22 58 6 29 21 29 22 7 28 -13 3 -21 10 -18 14 8 12 -20 19 -36 9 -10 -6 -10
-9 -1 -9 6 0 12 -4 12 -10 0 -22 -31 -8 -41 18 -12 31 -12 40 -5 101 6 57 12
60 30 20 9 -19 14 -27 13 -19 -3 21 40 74 46 58 4 -10 7 -10 14 0 13 17 56
-24 50 -48 -2 -9 4 -22 14 -29 11 -6 19 -19 19 -29 1 -12 5 -9 16 11 27 49 40
28 27 -45 -3 -21 -10 -28 -26 -28 -18 0 -19 2 -7 10 13 8 12 10 -2 10 -21 0
-58 -34 -58 -53 0 -7 5 -18 12 -25 9 -9 15 -7 25 6 9 11 12 11 7 2 -5 -11 -2
-10 13 3 20 17 21 17 27 -8 5 -21 10 -24 26 -15 22 12 31 13 28 3 -3 -9 5 -13
28 -13 10 0 13 6 10 18 -9 27 9 49 27 34 11 -9 22 -10 41 -2 20 7 44 6 91 -6
61 -15 65 -19 75 -52 6 -22 6 -40 0 -47 -6 -7 -5 -16 2 -23 9 -9 9 -15 1 -23
-8 -8 -8 -20 -1 -40 l10 -29 1819 0 1819 0 0 459 c0 395 -2 460 -15 471 -8 7
-15 21 -15 31 0 11 -4 19 -9 19 -8 0 -23 48 -35 110 -11 60 -76 180 -97 180
-5 0 -12 0 -16 0 -5 0 -18 24 -31 52 -20 46 -26 71 -35 143 -4 34 -17 48 -33
34 -15 -12 -21 -4 -27 39 -4 26 -59 88 -85 96 -31 10 -70 155 -75 276 0 8 -3
17 -6 20 -4 3 -11 18 -16 34 -6 16 -16 31 -24 34 -8 3 -11 0 -7 -7 4 -6 1 -11
-9 -11 -8 0 -19 8 -22 18 -4 9 -10 20 -15 23 -5 3 -10 18 -11 34 -2 25 4 30
78 61 44 19 83 34 88 34 5 0 23 6 40 14 18 8 84 35 147 59 63 25 141 57 173
71 l57 27 0 1163 c0 922 -3 1165 -12 1169 -10 4 -10 6 0 6 8 1 12 22 12 71 0
60 -3 70 -17 71 -15 0 -15 2 2 9 19 8 19 9 -1 9 -23 1 -40 26 -24 36 18 11 10
35 -11 35 -13 0 -18 -4 -13 -12 4 -7 3 -8 -5 -4 -15 10 4 36 26 36 10 0 8 6
-8 19 l-24 20 25 10 c24 9 24 10 3 10 -13 1 -23 6 -23 11 0 6 -7 10 -15 10 -8
0 -15 7 -15 15 0 9 -11 20 -25 25 -14 5 -25 12 -25 14 0 3 6 3 14 0 8 -3 17
-1 21 5 3 6 -1 11 -9 11 -10 0 -13 6 -10 15 4 8 1 15 -5 15 -6 0 -11 5 -11 10
0 6 7 10 15 10 18 0 20 20 3 21 -7 1 -2 5 12 9 18 6 20 8 7 9 -14 1 -17 6 -12
21 5 15 0 22 -19 29 -18 8 -23 15 -19 30 3 12 8 21 12 21 3 0 6 14 7 30 1 35
-6 38 -24 9 -20 -31 -26 -16 -8 19 15 28 14 31 -7 46 -12 9 -15 15 -7 13 25
-6 43 19 30 43 -9 17 -14 18 -30 8 -15 -10 -22 -10 -32 0 -9 9 -8 12 8 12 15
0 16 2 5 9 -11 7 -9 10 7 15 20 7 23 20 9 42 -4 7 1 14 13 17 17 4 19 9 10 32
-6 15 -20 41 -32 58 -18 24 -19 29 -5 24 11 -4 14 -2 10 8 -3 8 -9 12 -14 9
-5 -3 -9 4 -9 14 0 11 -7 23 -16 26 -9 3 -14 13 -10 21 3 8 1 17 -5 20 -5 4
-7 10 -4 15 3 4 -5 10 -16 13 -23 6 -17 27 7 27 16 0 19 16 4 25 -5 3 -10 15
-10 26 0 10 -5 19 -11 19 -5 0 -7 4 -4 10 3 5 1 20 -6 32 -9 16 -9 23 0 26 6
2 11 8 11 14 0 6 -6 8 -13 5 -9 -3 -13 3 -13 17 1 11 -4 20 -11 19 -8 -2 -9 6
-3 28 7 25 6 30 -5 25 -8 -3 -14 -2 -13 2 1 4 -8 27 -20 51 -12 24 -19 48 -16
53 3 5 -3 12 -15 15 -21 5 -37 36 -26 53 3 5 2 10 -4 10 -6 0 -14 12 -17 26
-5 20 -9 23 -16 12 -6 -8 -7 -1 -2 22 3 19 10 37 14 40 4 3 10 23 14 45 12 62
38 85 51 44 4 -13 2 -25 -5 -29 -7 -4 -9 -17 -5 -33 4 -15 11 -24 16 -21 5 3
7 10 4 15 -4 5 0 12 8 14 7 3 20 21 27 40 8 19 18 31 24 28 6 -3 8 -3 4 2 -4
4 -1 20 7 35 11 21 11 30 2 40 -9 10 -9 11 0 6 6 -3 14 -2 18 4 3 6 -1 13 -9
16 -9 3 -16 10 -16 16 0 5 5 6 12 2 15 -10 37 22 31 46 -3 11 -9 17 -14 14
-15 -9 -10 13 5 26 8 6 12 18 9 26 -4 12 -139 14 -933 14 l-928 0 -4 -25 c-5
-21 -2 -25 13 -20 16 5 18 2 17 -20 -2 -15 -10 -31 -20 -36 -10 -5 -18 -16
-18 -23 0 -8 -7 -17 -16 -20 -9 -3 -14 -12 -11 -19 8 -22 -19 -50 -42 -42 -23
7 -27 20 -10 31 6 3 15 1 19 -6 5 -8 9 -8 13 4 4 9 2 15 -3 13 -5 -1 -16 7
-24 18 -9 12 -15 15 -16 7 0 -9 -7 -11 -22 -7 -19 6 -21 5 -10 -6 6 -7 12 -23
12 -36 0 -13 6 -23 13 -23 8 -1 7 -5 -3 -13 -9 -7 -14 -20 -12 -29 2 -11 -3
-18 -12 -18 -9 0 -16 7 -16 15 0 8 -4 15 -10 15 -5 0 -10 -7 -10 -15 0 -12 -4
-13 -19 -4 -10 7 -27 9 -37 5 -15 -6 -16 -9 -4 -16 15 -9 16 -9 -36 -25 -8 -3
-12 -10 -8 -17 5 -8 -5 -10 -37 -5 -25 3 -52 9 -61 12 -13 5 -23 -5 -41 -42
-14 -26 -39 -59 -55 -73 -27 -22 -28 -27 -15 -42 13 -14 13 -19 -3 -43 -23
-36 -48 -29 -50 15 -2 30 0 32 11 17 15 -21 25 -22 25 -2 0 9 -6 18 -14 21 -8
3 -11 14 -9 29 4 16 0 25 -14 28 -14 4 -12 5 7 7 14 1 31 2 38 1 9 -1 7 8 -5
34 -9 19 -20 35 -24 35 -4 0 -10 14 -14 30 -6 25 -9 29 -21 19 -11 -9 -14 -8
-14 5 0 9 4 16 9 16 5 0 7 9 4 20 -4 16 1 21 26 26 38 8 39 21 4 51 -24 19
-26 24 -13 33 12 9 10 10 -7 5 -15 -4 -23 -2 -23 6 0 8 -6 7 -17 -4 -16 -13
-20 -13 -31 -1 -7 8 -11 14 -10 15 23 6 47 11 61 13 10 1 22 8 27 15 5 8 10 9
14 3 3 -6 1 -12 -5 -14 -7 -2 4 -4 23 -4 37 0 36 -2 30 68 -2 16 -29 17 -332
18 -286 0 -329 -2 -324 -14 9 -24 -5 -38 -22 -22 -8 8 -14 19 -14 25 0 6 -19
10 -45 9 -27 -2 -41 -6 -35 -12z m410 -17 c0 -6 -4 -7 -10 -4 -5 3 -10 11 -10
16 0 6 5 7 10 4 6 -3 10 -11 10 -16z m2670 -49 c0 -5 -5 -10 -11 -10 -5 0 -7
5 -4 10 3 6 8 10 11 10 2 0 4 -4 4 -10z m-2614 -15 c-3 -8 -1 -15 4 -15 6 0
10 7 10 15 0 8 4 15 8 15 5 0 7 -13 4 -30 -2 -16 -8 -30 -13 -30 -5 0 -6 -7
-3 -15 4 -8 13 -15 20 -15 8 0 17 7 20 15 4 8 15 15 26 15 11 0 18 -5 15 -12
-2 -7 -10 -12 -17 -10 -10 2 -10 -1 1 -14 13 -16 14 -16 17 0 2 11 9 15 19 12
8 -3 20 -6 26 -6 8 0 7 -4 -2 -9 -18 -11 -5 -31 20 -31 10 0 19 -4 19 -10 0
-5 -4 -10 -10 -10 -5 0 -10 -4 -10 -10 0 -5 7 -10 15 -10 8 0 15 -5 15 -11 0
-7 -10 -9 -25 -7 -23 5 -25 2 -26 -36 -4 -131 -3 -166 6 -166 6 0 2 -6 -7 -13
-11 -9 -14 -18 -8 -27 5 -9 5 -19 -1 -27 -6 -7 -8 -17 -4 -23 3 -5 3 -10 -2
-10 -10 0 -30 45 -44 95 -7 25 -15 35 -27 33 -19 -3 -82 48 -82 67 0 6 -9 29
-21 50 -11 22 -26 56 -32 75 -15 42 -7 106 12 102 7 -1 10 1 8 5 -10 16 12 53
28 47 8 -3 15 -1 15 5 0 6 7 11 16 11 10 0 14 -6 10 -15z m-115 -38 c-8 -8
-11 -5 -11 9 0 27 14 41 18 19 2 -9 -1 -22 -7 -28z m-181 2 c0 -6 -4 -7 -10
-4 -5 3 -10 11 -10 16 0 6 5 7 10 4 6 -3 10 -11 10 -16z m468 -44 c-3 -3 -9 2
-12 12 -6 14 -5 15 5 6 7 -7 10 -15 7 -18z m42 -65 c0 -5 -4 -10 -9 -10 -6 0
-13 5 -16 10 -3 6 1 10 9 10 9 0 16 -4 16 -10z m444 -209 c3 -5 -1 -25 -9 -45
-15 -36 -12 -62 6 -51 5 4 9 -6 9 -22 0 -18 -12 -41 -32 -62 -18 -19 -33 -42
-33 -52 -1 -10 -9 -27 -18 -37 -21 -23 -21 -32 -2 -32 24 0 93 78 132 149 20
36 37 67 37 67 1 1 11 5 24 9 19 6 23 3 21 -12 -2 -10 0 -24 5 -31 10 -16
-135 -170 -381 -403 -45 -43 -78 -80 -75 -84 4 -3 -1 -3 -11 1 -9 3 -17 2 -17
-3 0 -4 -8 -13 -18 -20 -18 -11 -19 -6 -21 100 -2 90 -6 117 -21 143 -25 40
-25 43 5 54 16 6 25 17 25 31 0 12 12 36 28 54 15 18 35 45 45 59 11 16 27 26
43 26 14 0 23 4 20 9 -3 5 1 14 9 21 13 11 14 10 9 -4 -5 -14 -2 -17 17 -14
24 3 54 -29 72 -74 3 -10 11 -18 16 -18 19 0 42 32 36 51 -9 28 5 89 21 89 10
0 12 8 8 29 -9 42 33 101 50 72z m-144 -73 c0 -19 -18 -43 -25 -36 -9 9 4 48
16 48 5 0 9 -6 9 -12z m2169 -595 c10 -19 9 -22 -4 -17 -8 4 -15 15 -15 27 0
23 2 22 19 -10z m47 -149 c-4 -9 -9 -15 -11 -12 -3 3 -3 13 1 22 4 9 9 15 11
12 3 -3 3 -13 -1 -22z m-1 -274 c-3 -5 -11 -10 -16 -10 -6 0 -7 5 -4 10 3 6
11 10 16 10 6 0 7 -4 4 -10z m95 -200 c0 -5 -7 -10 -16 -10 -8 0 -12 5 -9 10
3 6 10 10 16 10 5 0 9 -4 9 -10z m-3886 -1365 c3 -9 0 -15 -9 -15 -9 0 -12 6
-9 15 4 8 7 15 9 15 2 0 5 -7 9 -15z m-24 -35 c0 -5 -4 -10 -10 -10 -5 0 -10
5 -10 10 0 6 5 10 10 10 6 0 10 -4 10 -10z m-58 -81 c-17 -16 -35 -29 -39 -29
-4 1 3 10 16 20 13 11 21 20 17 20 -3 0 2 9 12 20 10 13 18 16 21 9 2 -6 -10
-24 -27 -40z m-52 -80 c0 -5 -10 -9 -21 -9 -18 0 -19 2 -9 15 12 15 30 12 30
-6z m-60 -46 c0 -14 -19 -38 -25 -32 -8 8 5 39 16 39 5 0 9 -3 9 -7z m-46 -49
c3 -8 2 -12 -4 -9 -6 3 -10 10 -10 16 0 14 7 11 14 -7z m-19 -44 c3 -5 1 -10
-4 -10 -6 0 -11 5 -11 10 0 6 2 10 4 10 3 0 8 -4 11 -10z m-38 -35 c-10 -7
-17 -16 -17 -21 0 -5 -9 -15 -20 -21 -16 -11 -18 -10 -14 2 4 8 9 15 13 15 4
0 13 12 19 26 7 15 17 22 24 18 8 -5 6 -11 -5 -19z m-91 -151 c-5 -12 -8 -13
-20 -2 -12 11 -12 16 2 32 15 16 17 17 20 2 2 -10 1 -24 -2 -32z m-52 -62 c-6
-4 -17 -18 -23 -30 -16 -31 -24 -22 -12 12 6 15 18 26 28 26 11 0 14 -3 7 -8z
m3040 -160 c19 -32 51 -78 70 -102 20 -25 36 -51 36 -57 0 -7 5 -13 10 -13 6
0 10 -5 10 -11 0 -7 20 -36 45 -65 25 -28 45 -57 45 -63 0 -6 4 -11 8 -11 5 0
13 -10 19 -22 6 -13 68 -95 138 -183 144 -179 189 -245 177 -257 -4 -4 -48
-22 -98 -39 -154 -54 -362 -106 -519 -129 -44 -6 -132 -22 -195 -35 -193 -40
-338 -63 -490 -80 -129 -15 -304 -50 -457 -91 -49 -14 -53 -17 -82 -78 -34
-68 -201 -260 -306 -350 -59 -51 -81 -89 -131 -228 -15 -40 -45 -107 -67 -148
-22 -41 -52 -97 -66 -124 -25 -49 -84 -96 -119 -96 -28 0 -59 27 -65 57 -4 18
5 54 25 103 38 95 48 125 58 175 4 22 19 80 34 129 14 49 24 91 21 94 -11 12
-36 -26 -59 -90 -21 -57 -49 -112 -66 -128 -3 -3 -38 -71 -79 -153 -77 -153
-105 -187 -156 -187 -60 0 -105 85 -72 135 21 33 107 269 107 295 0 6 21 53
46 103 58 116 65 135 54 142 -5 3 -28 -27 -51 -67 -23 -40 -52 -86 -63 -103
-30 -43 -42 -64 -70 -121 -14 -28 -32 -57 -41 -64 -8 -7 -15 -18 -15 -24 0
-17 -68 -154 -81 -162 -6 -3 -27 -10 -47 -15 -76 -17 -125 48 -98 132 24 75
83 235 95 257 6 11 11 29 11 39 0 10 25 59 55 108 30 50 59 98 66 109 11 18
10 18 -12 1 -38 -29 -118 -126 -176 -214 -57 -87 -99 -121 -149 -121 -39 0
-62 17 -73 56 -11 38 2 77 55 170 21 38 52 98 68 134 34 76 84 157 135 219 78
95 200 297 215 357 4 15 20 46 37 70 20 30 29 55 29 83 0 53 -36 89 -164 166
-111 66 -176 127 -211 200 -26 52 -26 92 -2 126 15 20 51 39 74 39 17 0 90
-41 153 -87 60 -43 254 -123 299 -123 14 0 50 -11 79 -25 49 -23 131 -42 212
-51 59 -6 139 -23 160 -34 39 -21 85 -12 380 75 69 20 163 47 210 60 205 55
415 126 535 180 351 157 434 192 462 194 6 1 27 -25 47 -57z m966 -1192 c0 -5
-4 -10 -10 -10 -5 0 -10 5 -10 10 0 6 5 10 10 10 6 0 10 -4 10 -10z m-4900
-140 c0 -5 -4 -10 -9 -10 -6 0 -13 5 -16 10 -3 6 1 10 9 10 9 0 16 -4 16 -10z
m730 -1214 c0 -2 -7 -7 -16 -10 -8 -3 -12 -2 -9 4 6 10 25 14 25 6z"/>
<path d="M3687 6433 c3 -7 9 -10 14 -7 14 8 11 21 -5 21 -8 0 -12 -6 -9 -14z"/>
<path d="M3760 6340 c19 -13 30 -13 30 0 0 6 -10 10 -22 10 -19 0 -20 -2 -8
-10z"/>
<path d="M3727 6333 c-4 -3 -7 -11 -7 -17 0 -6 5 -5 12 2 6 6 9 14 7 17 -3 3
-9 2 -12 -2z"/>
<path d="M3780 6255 c7 -9 15 -13 17 -11 7 7 -7 26 -19 26 -6 0 -6 -6 2 -15z"/>
<path d="M4110 6650 c0 -5 5 -10 11 -10 5 0 7 5 4 10 -3 6 -8 10 -11 10 -2 0
-4 -4 -4 -10z"/>
<path d="M3100 6606 c0 -2 7 -7 16 -10 8 -3 12 -2 9 4 -6 10 -25 14 -25 6z"/>
<path d="M3146 6587 c3 -10 9 -15 12 -12 3 3 0 11 -7 18 -10 9 -11 8 -5 -6z"/>
<path d="M4380 6586 c0 -2 7 -9 15 -16 9 -7 15 -8 15 -2 0 5 -7 12 -15 16 -8
3 -15 4 -15 2z"/>
<path d="M4080 6557 c0 -19 16 -31 24 -18 3 5 -1 14 -9 21 -12 10 -15 10 -15
-3z"/>
<path d="M2606 6543 c-6 -14 -5 -15 5 -6 7 7 10 15 7 18 -3 3 -9 -2 -12 -12z"/>
<path d="M4016 6535 c-3 -9 0 -15 9 -15 8 0 15 -4 15 -9 0 -10 30 -24 37 -17
7 7 -31 55 -43 56 -7 0 -14 -7 -18 -15z"/>
<path d="M3276 6522 c-3 -6 -1 -14 5 -17 14 -9 20 -2 10 14 -6 8 -11 9 -15 3z"/>
<path d="M4100 6483 c-13 -15 -12 -16 4 -10 10 4 20 7 22 7 2 0 4 5 4 10 0 15
-13 12 -30 -7z"/>
<path d="M3110 6479 c0 -11 27 -12 34 -1 2 4 -4 9 -15 9 -10 1 -19 -2 -19 -8z"/>
<path d="M4335 6480 c-3 -5 -2 -10 4 -10 5 0 13 5 16 10 3 6 2 10 -4 10 -5 0
-13 -4 -16 -10z"/>
<path d="M4130 6469 c-11 -8 -12 -12 -3 -15 7 -3 10 -11 7 -19 -3 -7 4 -18 15
-25 14 -7 21 -7 21 0 0 5 -4 10 -10 10 -22 0 -8 19 22 29 17 6 29 13 27 15
-12 10 -67 13 -79 5z"/>
<path d="M3166 6452 c-7 -11 51 -28 61 -18 4 3 -3 6 -13 6 -11 0 -25 5 -31 11
-7 7 -13 7 -17 1z"/>
<path d="M4036 6416 c3 -9 11 -16 16 -16 13 0 5 23 -10 28 -7 2 -10 -2 -6 -12z"/>
<path d="M3270 6399 c0 -5 5 -7 10 -4 6 3 10 1 10 -4 0 -6 8 -11 17 -11 15 0
14 2 -3 15 -23 17 -34 19 -34 4z"/>
<path d="M1442 6380 c0 -14 2 -19 5 -12 2 6 2 18 0 25 -3 6 -5 1 -5 -13z"/>
<path d="M1440 6096 c0 -2 7 -7 16 -10 8 -3 12 -2 9 4 -6 10 -25 14 -25 6z"/>
<path d="M1930 5580 c0 -5 7 -7 15 -4 8 4 15 8 15 10 0 2 -7 4 -15 4 -8 0 -15
-4 -15 -10z"/>
<path d="M1885 5545 c-37 -16 -69 -50 -60 -64 3 -6 2 -11 -3 -11 -6 0 -13 -11
-16 -24 -3 -13 -9 -31 -12 -40 -5 -13 1 -16 27 -17 l34 -1 -30 -7 c-16 -4 -44
-6 -61 -3 -19 3 -47 -4 -75 -19 l-44 -22 33 -9 c24 -6 32 -13 28 -24 -5 -13
-1 -15 22 -13 4 0 6 7 4 14 -1 8 8 21 20 29 27 17 105 7 122 -16 14 -17 57
-22 66 -7 5 7 12 5 23 -5 9 -9 23 -13 33 -9 10 4 22 0 29 -10 9 -13 18 -15 43
-7 28 7 34 5 52 -17 11 -14 17 -30 14 -35 -10 -15 -11 -138 -2 -132 4 3 4 -6
-1 -19 -6 -15 -6 -28 0 -34 12 -12 16 -190 4 -201 -5 -5 -27 -12 -47 -15 -32
-5 -38 -3 -38 12 0 14 -11 20 -46 25 -79 10 -134 8 -134 -8 0 -7 -15 -17 -32
-22 -20 -6 -34 -17 -37 -29 -2 -11 0 -17 4 -13 4 4 24 1 44 -7 39 -16 215 -17
239 -1 7 4 19 3 27 -4 19 -15 307 -8 313 8 2 7 8 12 13 12 4 0 5 -7 2 -17 -4
-11 -3 -14 5 -9 7 4 77 7 157 7 l145 -1 1 25 c1 14 1 34 1 45 0 11 0 24 -1 30
-1 6 -105 9 -282 9 -154 0 -283 2 -286 5 -5 5 -12 153 -14 328 -2 89 8 118 37
118 17 0 19 16 2 18 -75 7 -136 42 -145 85 -3 15 -10 27 -16 27 -6 0 -7 3 -4
6 12 12 -14 44 -46 57 -54 23 -81 25 -112 12z m35 -5 c0 -5 -5 -10 -11 -10 -5
0 -7 5 -4 10 3 6 8 10 11 10 2 0 4 -4 4 -10z m160 -160 c0 -5 -4 -10 -10 -10
-5 0 -10 5 -10 10 0 6 5 10 10 10 6 0 10 -4 10 -10z m61 -593 c-10 -9 -11 -8
-5 6 3 10 9 15 12 12 3 -3 0 -11 -7 -18z"/>
<path d="M2090 5245 c0 -9 5 -15 11 -13 6 2 11 8 11 13 0 5 -5 11 -11 13 -6 2
-11 -4 -11 -13z"/>
<path d="M1723 5091 c-1 -10 5 -18 13 -18 17 0 18 11 1 25 -10 8 -13 7 -14 -7z"/>
<path d="M6555 5089 c-4 -6 -5 -12 -2 -15 2 -3 7 2 10 11 7 17 1 20 -8 4z"/>
<path d="M1340 5052 c0 -6 8 -18 17 -28 16 -15 16 -17 1 -28 -10 -7 -13 -17
-9 -25 4 -7 6 -38 4 -69 -2 -31 -5 -64 -5 -72 -3 -39 3 -60 17 -60 12 0 15 16
15 84 0 47 -4 96 -9 110 -7 17 -7 26 1 28 8 3 8 13 1 33 -9 28 -33 47 -33 27z"/>
<path d="M6576 5026 c3 -9 11 -16 16 -16 13 0 5 23 -10 28 -7 2 -10 -2 -6 -12z"/>
<path d="M933 4930 c-35 -14 -27 -20 10 -8 17 6 34 13 36 14 8 7 -24 3 -46 -6z"/>
<path d="M1730 4908 c0 -20 -36 -29 -113 -27 -32 1 -60 -1 -63 -4 -3 -3 -3
-29 1 -56 7 -50 8 -51 41 -52 103 -3 165 1 160 10 -4 5 -2 21 4 35 6 17 6 26
0 26 -12 0 -13 37 -1 42 4 2 0 12 -10 22 -16 16 -19 17 -19 4z"/>
<path d="M797 4903 c-13 -12 -7 -33 8 -33 8 0 15 9 15 20 0 20 -11 26 -23 13z"/>
<path d="M6635 4860 c-3 -5 -2 -10 4 -10 5 0 13 5 16 10 3 6 2 10 -4 10 -5 0
-13 -4 -16 -10z"/>
<path d="M545 4809 c-17 -3 -29 -10 -27 -17 1 -7 -2 -12 -8 -12 -6 0 -10 -4
-10 -9 0 -12 553 -8 556 4 2 6 -1 17 -6 25 -8 13 -46 15 -242 15 -128 0 -247
-3 -263 -6z"/>
<path d="M2005 3090 c3 -5 8 -10 11 -10 2 0 4 5 4 10 0 6 -5 10 -11 10 -5 0
-7 -4 -4 -10z"/>
<path d="M1735 3040 c-3 -5 -1 -10 4 -10 6 0 11 5 11 10 0 6 -2 10 -4 10 -3 0
-8 -4 -11 -10z"/>
<path d="M1748 3002 c9 -10 19 -14 21 -9 2 5 -3 13 -10 18 -24 15 -30 10 -11
-9z"/>
<path d="M1780 2976 c0 -8 7 -16 15 -20 8 -3 15 -12 15 -21 0 -8 6 -15 14 -15
7 0 16 -9 19 -20 3 -11 10 -20 16 -20 9 0 8 6 0 23 -7 12 -15 24 -18 27 -3 3
-12 17 -20 33 -15 28 -41 37 -41 13z"/>
<path d="M1 2870 c-2 -57 -1 -60 23 -60 32 0 57 -10 51 -20 -3 -5 -18 -5 -34
0 -26 7 -30 5 -36 -17 -3 -15 -1 -31 5 -37 8 -8 10 -7 5 5 -4 10 -2 20 4 24 6
3 11 -1 11 -9 0 -12 12 -16 45 -17 25 -1 50 -2 57 -3 6 -1 13 5 15 12 3 6 -3
12 -12 12 -14 0 -14 3 2 25 13 18 24 24 41 20 12 -3 22 -1 22 5 0 5 -6 11 -12
11 -7 1 -22 3 -33 5 -11 2 -39 6 -62 10 -46 7 -59 24 -18 24 14 0 25 5 25 10
0 6 -6 10 -12 9 -7 -1 -25 -1 -40 0 -23 1 -28 6 -28 26 0 14 -4 25 -9 25 -4 0
-9 -27 -10 -60z"/>
<path d="M83 2918 c3 -9 1 -19 -6 -22 -9 -3 -9 -5 0 -5 18 -1 23 13 11 29 -8
12 -9 12 -5 -2z"/>
<path d="M1312 2860 c0 -14 2 -19 5 -12 2 6 2 18 0 25 -3 6 -5 1 -5 -13z"/>
<path d="M270 2797 c0 -18 -4 -25 -14 -21 -7 3 -16 -2 -19 -10 -4 -10 -1 -13
9 -9 10 4 12 0 8 -11 -3 -9 -1 -16 4 -16 17 0 67 -50 51 -50 -10 -1 -8 -5 5
-15 12 -9 17 -22 13 -35 -3 -11 -1 -17 4 -14 6 3 9 -5 8 -18 -4 -44 1 -56 26
-60 21 -4 23 -3 14 9 -19 22 -3 26 25 8 15 -10 25 -25 24 -33 -2 -9 5 -18 15
-20 27 -5 23 58 -5 82 -14 13 -23 15 -26 8 -2 -7 -17 -12 -33 -12 -19 0 -28 4
-24 11 4 6 13 8 21 5 8 -3 17 1 21 10 3 8 11 13 18 10 18 -6 27 5 16 18 -5 6
-11 27 -13 46 -2 21 -8 34 -15 33 -7 -2 -13 4 -13 12 0 8 5 15 11 15 6 0 3 7
-6 17 -13 12 -19 13 -24 4 -6 -9 -11 -8 -21 4 -7 8 -21 15 -32 15 -15 0 -18 5
-14 23 3 12 3 16 0 9 -5 -10 -9 -10 -20 -1 -11 9 -14 7 -14 -14z m110 -93 c0
-11 -45 -42 -54 -37 -5 3 2 14 15 24 24 19 39 24 39 13z m-20 -54 c0 -5 -5
-10 -11 -10 -5 0 -7 5 -4 10 3 6 8 10 11 10 2 0 4 -4 4 -10z m50 4 c0 -16 -23
-44 -35 -44 -19 0 -19 6 3 29 17 19 32 26 32 15z"/>
<path d="M185 2771 c-3 -6 -1 -11 5 -11 6 0 10 -6 9 -12 -3 -28 2 -38 19 -38
10 0 13 3 6 8 -6 4 -11 18 -10 31 1 25 -18 39 -29 22z"/>
<path d="M12 2706 c1 -10 8 -17 13 -17 15 1 12 24 -3 29 -9 3 -13 -2 -10 -12z"/>
<path d="M50 2681 c0 -12 28 -22 35 -12 3 5 -2 12 -11 15 -21 8 -24 8 -24 -3z"/>
<path d="M135 2680 c3 -5 8 -10 11 -10 2 0 4 5 4 10 0 6 -5 10 -11 10 -5 0 -7
-4 -4 -10z"/>
<path d="M190 2656 c0 -9 5 -16 10 -16 6 0 10 4 10 9 0 6 -4 13 -10 16 -5 3
-10 -1 -10 -9z"/>
<path d="M220 2610 c0 -5 5 -10 10 -10 6 0 10 5 10 10 0 6 -4 10 -10 10 -5 0
-10 -4 -10 -10z"/>
<path d="M250 2606 c0 -8 5 -18 10 -21 6 -3 10 1 10 9 0 8 -4 18 -10 21 -5 3
-10 -1 -10 -9z"/>
<path d="M1 2574 c0 -11 3 -14 6 -6 3 7 2 16 -1 19 -3 4 -6 -2 -5 -13z"/>
<path d="M193 2583 c-15 -5 -18 -33 -4 -33 5 0 11 9 14 20 3 11 4 20 4 19 -1
0 -8 -3 -14 -6z"/>
<path d="M250 2556 c0 -2 7 -7 16 -10 8 -3 12 -2 9 4 -6 10 -25 14 -25 6z"/>
<path d="M195 2530 c3 -5 8 -10 11 -10 2 0 4 5 4 10 0 6 -5 10 -11 10 -5 0 -7
-4 -4 -10z"/>
<path d="M135 2520 c-3 -5 -1 -10 4 -10 6 0 11 5 11 10 0 6 -2 10 -4 10 -3 0
-8 -4 -11 -10z"/>
<path d="M345 2520 c3 -5 8 -10 11 -10 2 0 4 5 4 10 0 6 -5 10 -11 10 -5 0 -7
-4 -4 -10z"/>
<path d="M0 2398 c0 -93 3 -128 12 -128 9 0 9 -3 0 -12 -7 -7 -12 -38 -12 -70
0 -52 2 -58 20 -58 27 0 45 -46 31 -77 -6 -13 -17 -23 -26 -23 -8 0 -15 -6
-15 -14 0 -16 24 -38 32 -30 3 3 5 -2 4 -12 0 -9 5 -19 13 -22 8 -3 11 0 7 6
-3 6 -1 14 5 17 17 11 23 -3 9 -20 -14 -17 -24 -75 -12 -75 4 0 14 -15 22 -32
7 -18 15 -36 18 -41 2 -4 -3 -4 -12 -1 -9 3 -16 2 -16 -4 0 -5 7 -13 16 -16 9
-4 14 -9 11 -12 -3 -4 7 -30 22 -59 34 -63 32 -110 -3 -101 -11 3 -24 6 -28 6
-5 0 -8 9 -8 20 0 11 -4 20 -10 20 -5 0 -10 -2 -10 -5 0 -10 24 -55 30 -55 3
0 14 -6 24 -13 16 -12 16 -14 -7 -39 -14 -15 -28 -24 -31 -21 -3 4 -6 2 -6 -4
0 -6 8 -17 17 -24 15 -12 16 -12 10 3 -3 10 -2 20 3 23 14 9 12 -39 -2 -53 -9
-9 -9 -12 1 -12 7 0 9 -5 6 -10 -4 -6 -1 -17 5 -25 8 -9 10 -28 6 -49 -4 -19
-2 -37 3 -40 5 -3 8 2 7 11 0 10 7 19 16 21 14 3 16 -1 11 -14 -6 -16 -5 -16
8 -5 8 8 15 28 15 45 2 55 11 90 23 94 8 3 6 9 -6 19 -13 10 -15 16 -5 19 6 3
10 10 6 15 -3 5 0 9 7 9 8 0 6 5 -4 13 -9 6 -18 23 -19 36 -2 20 3 27 27 35
17 6 31 11 33 12 7 4 -12 34 -22 34 -6 0 -24 11 -39 24 -16 14 -34 27 -40 29
-16 5 2 27 23 27 10 0 22 5 26 11 7 12 7 62 0 109 -2 14 1 30 6 36 5 7 3 14
-6 17 -9 4 -12 14 -9 26 3 14 0 21 -8 21 -9 1 -7 6 5 15 21 16 40 20 32 7 -10
-17 76 -10 107 8 l32 20 -34 0 c-27 0 -31 3 -22 14 9 11 6 14 -15 14 -14 0
-28 -6 -30 -13 -3 -6 -18 -12 -35 -13 -16 0 -27 4 -24 9 4 5 18 9 32 9 21 0
23 3 14 14 -15 18 13 30 39 16 26 -14 40 -12 40 4 0 17 -29 25 -55 16 -11 -4
-24 -4 -30 0 -5 4 -32 10 -58 13 -60 6 -80 22 -53 43 11 8 16 15 10 15 -5 1
-16 2 -24 3 -10 1 -14 9 -12 24 2 12 -1 22 -7 22 -6 0 -8 6 -5 14 3 7 -3 31
-12 52 -9 22 -18 41 -18 44 -1 3 -5 11 -9 18 -5 6 -5 17 -1 24 4 7 7 27 6 45
-2 29 1 33 21 33 15 0 24 6 24 15 0 9 -6 14 -13 11 -8 -3 -16 -1 -19 4 -4 6
-15 10 -25 10 -10 0 -24 8 -29 18 -8 12 -10 -19 -11 -110z m30 -194 c0 -8 -4
-12 -10 -9 -5 3 -10 13 -10 21 0 8 5 12 10 9 6 -3 10 -13 10 -21z m0 -44 c0
-5 -4 -10 -10 -10 -5 0 -10 5 -10 10 0 6 5 10 10 10 6 0 10 -4 10 -10z m140
-64 c0 -3 -4 -8 -10 -11 -5 -3 -10 -1 -10 4 0 6 5 11 10 11 6 0 10 -2 10 -4z
m-45 -205 c7 -12 -12 -24 -25 -16 -11 7 -4 25 10 25 5 0 11 -4 15 -9z m28 -71
c3 -14 1 -20 -6 -17 -7 2 -14 14 -15 26 -4 28 13 20 21 -9z m6 -302 c-7 -13
-14 -18 -16 -11 -3 7 2 19 9 27 18 20 22 12 7 -16z"/>
<path d="M380 2510 c0 -5 -8 -10 -17 -10 -14 0 -15 -2 -4 -9 8 -5 11 -16 6
-30 -7 -23 1 -26 25 -11 12 7 13 13 3 28 -9 15 -9 22 0 31 8 8 8 11 -1 11 -7
0 -12 -4 -12 -10z"/>
<path d="M140 2469 c0 -5 5 -7 10 -4 6 3 10 8 10 11 0 2 -4 4 -10 4 -5 0 -10
-5 -10 -11z"/>
<path d="M430 2476 c0 -2 7 -17 15 -32 17 -33 20 -58 5 -49 -5 3 -10 1 -10 -4
0 -6 5 -11 12 -11 6 0 9 -2 6 -5 -13 -14 -35 8 -30 31 4 20 1 24 -22 24 -26 0
-35 -13 -16 -25 6 -4 10 -12 9 -18 -1 -7 -1 -27 0 -46 1 -28 3 -31 15 -21 8 6
12 18 9 27 -5 12 -1 14 18 8 13 -5 30 -8 37 -8 6 0 12 -5 12 -11 0 -6 4 -6 11
1 7 7 8 19 4 30 -11 25 -16 43 -22 81 -4 26 -10 32 -29 32 -13 0 -24 -2 -24
-4z"/>
<path d="M170 2465 c0 -9 34 -45 43 -45 4 0 5 5 2 10 -4 6 8 8 31 5 46 -6 61
3 37 20 -13 10 -22 10 -31 3 -9 -8 -16 -8 -24 0 -12 12 -58 17 -58 7z"/>
<path d="M74 2414 c3 -9 6 -18 6 -20 0 -2 9 -4 20 -4 23 0 26 10 8 28 -18 18
-41 15 -34 -4z"/>
<path d="M220 2410 c0 -9 -11 -11 -34 -7 -19 3 -39 0 -45 -6 -16 -16 -13 -32
3 -18 11 9 20 9 35 2 11 -6 32 -11 46 -11 21 0 26 4 23 22 -3 23 -28 38 -28
18z"/>
<path d="M470 2310 c0 -5 9 -10 20 -10 11 0 20 5 20 10 0 6 -9 10 -20 10 -11
0 -20 -4 -20 -10z"/>
<path d="M432 2274 c17 -18 48 -13 48 7 0 8 -4 8 -15 -1 -10 -9 -15 -9 -15 -1
0 6 -8 11 -17 11 -16 0 -16 -1 -1 -16z"/>
<path d="M430 2230 c0 -5 7 -10 16 -10 8 0 12 5 9 10 -3 6 -10 10 -16 10 -5 0
-9 -4 -9 -10z"/>
<path d="M495 2180 c-3 -6 1 -7 9 -4 18 7 21 14 7 14 -6 0 -13 -4 -16 -10z"/>
<path d="M250 2160 c0 -5 5 -10 11 -10 5 0 7 5 4 10 -3 6 -8 10 -11 10 -2 0
-4 -4 -4 -10z"/>
<path d="M456 2151 c-4 -7 -5 -15 -2 -18 9 -9 19 4 14 18 -4 11 -6 11 -12 0z"/>
<path d="M7 2113 c-12 -11 -7 -33 7 -33 12 0 26 20 26 36 0 7 -26 5 -33 -3z"/>
<path d="M546 2103 c-6 -14 -5 -15 5 -6 7 7 10 15 7 18 -3 3 -9 -2 -12 -12z"/>
<path d="M470 2101 c0 -5 5 -13 10 -16 6 -3 10 -2 10 4 0 5 -4 13 -10 16 -5 3
-10 2 -10 -4z"/>
<path d="M10 2060 c0 -5 4 -10 9 -10 6 0 13 5 16 10 3 6 -1 10 -9 10 -9 0 -16
-4 -16 -10z"/>
<path d="M515 2010 c-4 -6 -11 -8 -16 -5 -5 4 -4 -5 3 -19 12 -27 23 -33 33
-16 3 6 1 10 -5 10 -7 0 -9 8 -5 20 7 21 1 27 -10 10z"/>
<path d="M585 1990 c-3 -5 -1 -10 4 -10 6 0 11 5 11 10 0 6 -2 10 -4 10 -3 0
-8 -4 -11 -10z"/>
<path d="M6367 1975 c-4 -8 -4 -21 -1 -29 3 -8 1 -17 -5 -21 -6 -3 -11 -17
-11 -30 0 -22 2 -23 36 -12 42 13 55 35 31 52 -9 7 -15 14 -13 16 2 2 -4 12
-14 22 -15 16 -18 16 -23 2z"/>
<path d="M250 1920 c0 -5 4 -10 9 -10 6 0 13 5 16 10 3 6 -1 10 -9 10 -9 0
-16 -4 -16 -10z"/>
<path d="M316 1921 c-4 -7 -5 -15 -2 -18 9 -9 19 4 14 18 -4 11 -6 11 -12 0z"/>
<path d="M340 1910 c0 -5 5 -10 11 -10 5 0 7 5 4 10 -3 6 -8 10 -11 10 -2 0
-4 -4 -4 -10z"/>
<path d="M520 1906 c0 -9 5 -16 10 -16 6 0 10 4 10 9 0 6 -4 13 -10 16 -5 3
-10 -1 -10 -9z"/>
<path d="M550 1911 c0 -6 4 -13 10 -16 6 -3 7 1 4 9 -7 18 -14 21 -14 7z"/>
<path d="M600 1876 c0 -7 8 -20 17 -27 15 -12 16 -12 10 4 -4 10 -7 23 -7 28
0 5 -4 9 -10 9 -5 0 -10 -6 -10 -14z"/>
<path d="M510 1870 c0 -5 5 -10 10 -10 6 0 10 5 10 10 0 6 -4 10 -10 10 -5 0
-10 -4 -10 -10z"/>
<path d="M550 1860 c0 -5 -8 -10 -17 -10 -13 0 -14 -3 -5 -12 9 -9 18 -9 39 1
22 10 24 14 12 22 -19 12 -29 11 -29 -1z"/>
<path d="M350 1810 c-8 -5 -11 -12 -7 -16 4 -4 13 -2 19 4 15 15 7 24 -12 12z"/>
<path d="M451 1804 c0 -11 3 -14 6 -6 3 7 2 16 -1 19 -3 4 -6 -2 -5 -13z"/>
<path d="M550 1801 c0 -6 4 -13 10 -16 6 -3 7 1 4 9 -7 18 -14 21 -14 7z"/>
<path d="M612 1795 c-30 -16 -42 -30 -18 -21 26 9 36 -9 36 -62 0 -28 4 -41
11 -37 7 5 8 29 4 68 -3 34 -7 62 -8 62 -1 1 -12 -4 -25 -10z"/>
<path d="M57 1783 c-12 -12 -7 -33 7 -33 8 0 13 7 12 15 -3 19 -11 27 -19 18z"/>
<path d="M330 1770 c0 -5 5 -10 10 -10 6 0 10 5 10 10 0 6 -4 10 -10 10 -5 0
-10 -4 -10 -10z"/>
<path d="M250 1760 c0 -5 -9 -10 -20 -10 -11 0 -20 -4 -20 -10 0 -5 6 -7 14
-4 10 4 20 -9 33 -45 16 -45 22 -53 53 -60 19 -5 57 -9 83 -8 26 0 53 -5 59
-11 16 -16 25 -15 25 3 0 8 -4 12 -8 9 -4 -2 -10 0 -14 6 -4 6 -11 8 -16 4
-17 -10 -39 17 -39 47 0 16 -3 28 -7 28 -15 -3 -73 14 -73 21 0 4 -14 6 -30 5
-25 -2 -29 1 -24 17 3 10 1 18 -5 18 -6 0 -11 -4 -11 -10z m46 -95 c1 -14 -2
-22 -7 -19 -11 6 -12 44 -1 44 4 0 8 -11 8 -25z"/>
<path d="M541 1723 c3 -60 8 -75 23 -66 6 4 5 -1 -2 -10 -8 -9 -15 -40 -17
-69 -3 -39 -1 -48 6 -35 14 24 32 22 24 -3 -3 -11 -2 -20 3 -20 17 0 20 36 7
74 -7 20 -9 36 -5 36 5 0 10 -5 12 -12 3 -7 11 -9 24 -4 15 7 16 9 4 13 -8 3
-21 12 -27 21 -10 12 -9 18 5 28 16 12 16 13 0 14 -31 0 -69 60 -38 60 6 0 10
-9 10 -20 0 -12 7 -20 16 -20 14 0 14 3 4 15 -7 8 -9 15 -6 15 4 0 1 7 -8 15
-27 27 -37 17 -35 -32z"/>
<path d="M50 1724 c0 -3 7 -12 15 -20 16 -17 18 -14 9 10 -6 15 -24 23 -24 10z"/>
<path d="M60 1590 c-8 -5 -11 -12 -7 -16 4 -4 13 -2 19 4 15 15 7 24 -12 12z"/>
<path d="M485 1580 c-3 -5 -1 -10 4 -10 6 0 11 5 11 10 0 6 -2 10 -4 10 -3 0
-8 -4 -11 -10z"/>
<path d="M611 1563 c0 -15 3 -22 6 -15 2 6 9 12 14 12 4 0 6 -7 3 -15 -4 -8
-2 -15 4 -15 5 0 12 10 15 22 7 26 8 24 -20 32 -20 7 -23 4 -22 -21z"/>
<path d="M1671 1574 c0 -11 3 -14 6 -6 3 7 2 16 -1 19 -3 4 -6 -2 -5 -13z"/>
<path d="M70 1560 c0 -5 5 -10 10 -10 6 0 10 5 10 10 0 6 -4 10 -10 10 -5 0
-10 -4 -10 -10z"/>
<path d="M1636 1554 c-9 -23 -2 -28 13 -10 7 8 8 17 3 20 -6 3 -13 -1 -16 -10z"/>
<path d="M980 1550 c0 -5 5 -10 11 -10 5 0 7 5 4 10 -3 6 -8 10 -11 10 -2 0
-4 -4 -4 -10z"/>
<path d="M1781 1552 c-1 -7 -5 -11 -9 -8 -4 2 -13 -4 -20 -15 -14 -22 -4 -25
22 -6 11 8 16 20 13 28 -4 10 -6 11 -6 1z"/>
<path d="M535 1511 c-4 -8 -2 -17 5 -21 7 -4 9 -14 5 -21 -6 -10 -5 -11 4 -3
8 7 9 19 3 34 -6 17 -11 20 -17 11z"/>
<path d="M1620 1494 c0 -8 5 -12 10 -9 6 3 10 10 10 16 0 5 -4 9 -10 9 -5 0
-10 -7 -10 -16z"/>
<path d="M1775 1501 c-3 -5 -1 -12 5 -16 5 -3 10 1 10 9 0 18 -6 21 -15 7z"/>
<path d="M203 1339 c-18 -5 -33 -14 -33 -19 0 -5 8 -6 17 -3 12 5 15 2 10 -10
-3 -9 0 -23 8 -30 10 -11 11 -17 2 -26 -8 -8 -5 -11 11 -11 14 0 26 -8 30 -20
7 -18 10 -15 27 22 10 24 25 49 32 57 21 21 10 36 -25 33 -18 -2 -32 1 -32 7
0 13 -3 13 -47 0z"/>
<path d="M387 1327 c-4 -11 -17 -17 -36 -17 -27 0 -50 -23 -32 -34 10 -6 79
12 84 22 3 4 1 16 -3 26 -6 17 -7 18 -13 3z"/>
<path d="M420 1315 c0 -8 5 -15 10 -15 6 0 10 7 10 15 0 8 -4 15 -10 15 -5 0
-10 -7 -10 -15z"/>
<path d="M180 1110 c0 -5 5 -10 10 -10 6 0 10 5 10 10 0 6 -4 10 -10 10 -5 0
-10 -4 -10 -10z"/>
<path d="M95 1090 c-3 -5 -2 -10 4 -10 5 0 13 5 16 10 3 6 2 10 -4 10 -5 0
-13 -4 -16 -10z"/>
<path d="M192 1065 c2 -11 -1 -26 -5 -32 -5 -7 -4 -13 2 -13 17 0 21 17 11 42
-8 19 -9 20 -8 3z"/>
<path d="M105 1060 c3 -5 8 -10 11 -10 2 0 4 5 4 10 0 6 -5 10 -11 10 -5 0 -7
-4 -4 -10z"/>
<path d="M70 1022 c1 -9 26 -42 33 -42 11 0 -6 39 -19 44 -8 3 -14 2 -14 -2z"/>
<path d="M188 973 c-5 -24 3 -73 11 -73 3 0 7 20 7 45 1 44 -11 63 -18 28z"/>
<path d="M2090 931 c0 -6 9 -9 20 -8 11 1 20 5 20 9 0 4 -9 8 -20 8 -11 0 -20
-4 -20 -9z"/>
<path d="M190 840 c0 -5 7 -10 16 -10 8 0 12 5 9 10 -3 6 -10 10 -16 10 -5 0
-9 -4 -9 -10z"/>
<path d="M336 775 c-17 -25 -16 -26 16 -40 34 -14 24 -27 -16 -22 -37 4 -28
-22 11 -29 21 -4 42 -9 47 -12 17 -10 76 -9 76 2 0 6 5 5 12 -2 15 -15 42 -16
33 -1 -4 5 -19 15 -33 21 -25 10 -26 11 -7 18 11 4 26 3 33 -2 8 -7 12 -7 12
1 0 6 -5 11 -11 11 -5 0 -7 4 -4 10 3 6 -1 7 -9 4 -9 -4 -16 -1 -16 6 0 7 -8
10 -19 7 -11 -2 -24 3 -32 14 -7 10 -16 16 -21 13 -4 -3 -11 2 -14 10 -9 24
-40 19 -58 -9z"/>
<path d="M569 784 c-1 -11 -2 -26 -3 -34 0 -8 -9 -14 -18 -14 -23 2 -23 -4 -1
-29 17 -18 17 -19 0 -28 -24 -14 -22 -33 3 -26 13 3 18 1 13 -6 -4 -6 0 -8 10
-4 9 3 18 0 21 -9 3 -9 9 -13 13 -11 10 6 159 -17 248 -38 39 -9 93 -17 120
-19 28 -1 55 -5 60 -8 27 -15 136 -40 189 -43 63 -3 193 -31 212 -47 6 -4 18
-6 26 -3 8 3 33 2 56 -4 45 -10 56 -2 20 14 -12 6 -23 17 -25 25 -3 9 0 8 7
-3 11 -18 13 -18 28 4 15 21 14 23 -6 37 -12 8 -22 21 -22 29 0 9 -6 12 -19 8
-10 -3 -23 1 -30 9 -7 8 -19 12 -27 9 -9 -3 -14 2 -14 16 0 12 -4 21 -10 21
-5 0 -10 -5 -10 -10 0 -7 -7 -7 -21 0 -15 9 -24 8 -35 0 -7 -7 -23 -10 -34 -7
-14 4 -20 0 -21 -11 0 -10 -3 -12 -5 -5 -3 7 -12 9 -20 6 -8 -3 -25 6 -39 21
-26 28 -40 32 -50 15 -5 -7 -14 -4 -27 8 -11 10 -39 19 -65 20 -40 3 -44 2
-33 -12 7 -9 11 -18 8 -21 -9 -9 -59 16 -53 26 3 5 1 10 -5 10 -7 0 -14 -9
-17 -20 -7 -25 -15 -25 -31 0 -9 16 -19 19 -39 14 -22 -6 -25 -4 -20 10 4 9 2
16 -3 16 -6 0 -10 -6 -10 -12 -1 -7 -8 -1 -16 15 -12 23 -19 26 -42 21 -15 -4
-30 -11 -33 -16 -8 -12 -77 0 -105 18 -12 7 -31 10 -43 7 -17 -4 -20 -2 -15
11 4 10 1 16 -9 16 -9 0 -25 12 -36 26 -18 23 -21 24 -22 8z m210 -139 c8 0
16 -6 19 -13 7 -22 -32 -12 -58 15 l-25 26 25 -14 c14 -8 31 -14 39 -14z m270
-64 c0 -10 -2 -11 -6 -3 -2 6 -13 12 -24 12 -10 0 -19 4 -19 9 0 4 11 6 25 3
15 -2 25 -11 24 -21z m261 -46 c0 -8 -4 -15 -10 -15 -5 0 -10 7 -10 15 0 8 5
15 10 15 6 0 10 -7 10 -15z m90 -9 c0 -3 -4 -8 -10 -11 -5 -3 -10 -1 -10 4 0
6 5 11 10 11 6 0 10 -2 10 -4z"/>
<path d="M1755 790 c-3 -5 -1 -10 4 -10 6 0 11 5 11 10 0 6 -2 10 -4 10 -3 0
-8 -4 -11 -10z"/>
<path d="M203 742 c2 -34 5 -38 25 -34 26 5 28 15 7 36 -8 8 -15 19 -15 25 0
6 -4 11 -9 11 -5 0 -8 -17 -8 -38z"/>
<path d="M122 750 c0 -14 2 -19 5 -12 2 6 2 18 0 25 -3 6 -5 1 -5 -13z"/>
<path d="M2170 760 c0 -5 5 -10 11 -10 5 0 7 5 4 10 -3 6 -8 10 -11 10 -2 0
-4 -4 -4 -10z"/>
<path d="M60 749 c0 -5 5 -7 10 -4 6 3 10 8 10 11 0 2 -4 4 -10 4 -5 0 -10 -5
-10 -11z"/>
<path d="M2170 700 c6 -11 15 -20 20 -20 6 0 10 9 10 20 0 13 -7 20 -20 20
-18 0 -19 -3 -10 -20z"/>
<path d="M2177 653 c-4 -3 -7 -15 -7 -25 0 -10 -4 -18 -10 -18 -5 0 -10 -4
-10 -10 0 -5 8 -10 18 -10 12 0 13 -3 5 -8 -9 -6 -7 -11 7 -20 21 -13 23 -9
11 23 -5 13 -3 24 5 30 11 8 11 13 0 27 -7 10 -16 15 -19 11z"/>
<path d="M1667 547 c-8 -29 -34 -37 -43 -13 -3 9 -18 14 -35 14 -23 -1 -27 -4
-18 -14 6 -7 8 -17 5 -22 -3 -6 2 -16 11 -23 9 -8 17 -13 17 -11 1 2 13 -1 27
-7 15 -5 36 -7 48 -4 24 6 29 -14 6 -23 -8 -4 -15 -13 -15 -20 0 -12 4 -12 20
-4 11 6 20 7 20 2 0 -5 22 -8 49 -8 35 1 47 4 44 13 -3 7 -11 13 -18 13 -8 0
-16 17 -20 40 -6 34 -9 38 -24 31 -22 -12 -43 1 -35 22 4 11 1 17 -9 17 -8 0
-17 6 -19 12 -3 7 -8 1 -11 -15z"/>
<path d="M1740 560 c0 -5 5 -10 10 -10 6 0 10 5 10 10 0 6 -4 10 -10 10 -5 0
-10 -4 -10 -10z"/>
<path d="M1630 440 c0 -5 5 -10 11 -10 5 0 7 5 4 10 -3 6 -8 10 -11 10 -2 0
-4 -4 -4 -10z"/>
<path d="M1843 419 c14 -22 27 -25 27 -5 0 7 -9 16 -19 19 -17 4 -18 2 -8 -14z"/>
<path d="M2520 370 c0 -5 5 -10 10 -10 6 0 10 5 10 10 0 6 -4 10 -10 10 -5 0
-10 -4 -10 -10z"/>
<path d="M2155 360 c3 -5 8 -10 11 -10 2 0 4 5 4 10 0 6 -5 10 -11 10 -5 0 -7
-4 -4 -10z"/>
<path d="M2630 295 c0 -8 4 -15 10 -15 5 0 7 7 4 15 -4 8 -8 15 -10 15 -2 0
-4 -7 -4 -15z"/>
<path d="M2191 264 c0 -11 3 -14 6 -6 3 7 2 16 -1 19 -3 4 -6 -2 -5 -13z"/>
<path d="M2303 253 c-7 -3 -13 -8 -13 -13 0 -11 28 -21 34 -12 7 12 -8 29 -21
25z"/>
<path d="M320 190 c0 -5 5 -10 11 -10 5 0 7 5 4 10 -3 6 -8 10 -11 10 -2 0 -4
-4 -4 -10z"/>
<path d="M2014 181 c9 -26 9 -85 2 -103 -6 -13 -3 -15 14 -11 12 3 19 11 16
19 -3 7 2 18 10 25 13 10 12 14 -2 30 -10 11 -13 19 -8 19 5 0 10 8 10 18 0
11 -9 18 -23 18 -18 2 -22 -2 -19 -15z"/>
<path d="M2940 180 c-12 -7 -10 -9 8 -7 12 0 22 5 22 9 0 11 -12 10 -30 -2z"/>
<path d="M2744 103 c3 -14 10 -31 15 -36 7 -7 3 -16 -11 -29 -12 -10 -18 -21
-14 -26 10 -10 47 38 39 50 -3 6 -6 24 -5 39 0 19 -4 29 -14 29 -10 0 -13 -8
-10 -27z"/>
<path d="M2387 94 c-3 -3 -3 -12 -1 -19 3 -7 -1 -15 -9 -18 -19 -7 -19 -57 -1
-57 17 0 18 16 3 26 -8 5 -6 10 5 16 9 5 15 19 14 33 -3 28 -2 27 -11 19z"/>
<path d="M2710 80 c-9 -6 -10 -10 -3 -10 6 0 15 5 18 10 8 12 4 12 -15 0z"/>
<path d="M120 58 c0 -4 9 -8 20 -8 11 0 20 4 20 8 0 4 -9 8 -20 8 -11 0 -20
-4 -20 -8z"/>
<path d="M2690 41 c0 -5 7 -12 16 -15 14 -5 15 -4 4 9 -14 17 -20 19 -20 6z"/>
<path d="M2428 33 c7 -3 16 -2 19 1 4 3 -2 6 -13 5 -11 0 -14 -3 -6 -6z"/>
<path d="M2020 20 c0 -5 5 -10 11 -10 5 0 7 5 4 10 -3 6 -8 10 -11 10 -2 0 -4
-4 -4 -10z"/>
<path d="M2075 19 c-10 -15 1 -23 20 -15 9 3 13 10 10 16 -8 13 -22 13 -30 -1z"/>
<path d="M2950 20 c0 -5 7 -10 15 -10 8 0 15 5 15 10 0 6 -7 10 -15 10 -8 0
-15 -4 -15 -10z"/>
</g>
</svg>
